<?xml version="1.0" encoding="utf-8"?>
<!-- Generator: Adobe Illustrator 26.3.1, SVG Export Plug-In . SVG Version: 6.00 Build 0)  -->
<svg version="1.1" id="Layer_1" xmlns="http://www.w3.org/2000/svg" xmlns:xlink="http://www.w3.org/1999/xlink" x="0px" y="0px"
	 viewBox="0 0 422 443" style="enable-background:new 0 0 422 443;" xml:space="preserve">
<g>
	<path fill="white" d="M108.7,19.9c-4.3,0.5-8,3.6-9.3,7.7c-1.3,4.2-0.1,8.7,3.2,11.7l193,182.4l-193,182.2c-2.2,2-3.4,4.9-3.5,7.8
		c-0.1,3,1,5.9,3.1,8s4.9,3.4,7.9,3.5c3,0.1,5.9-1,8-3.1l201.6-190.4c2.2-2.1,3.5-5.1,3.5-8.1c0-3.1-1.3-6-3.5-8.1L118,23
		C115.6,20.6,112.1,19.5,108.7,19.9L108.7,19.9z"/>
</g>
</svg>
